<svg width="36" height="28" viewBox="0 0 36 28" fill="none" xmlns="http://www.w3.org/2000/svg">
<path d="M30.4183 2.34927C34.4251 8.27687 36.4039 14.963 35.6642 22.6604C35.6611 22.6929 35.6443 22.7228 35.6176 22.7425C32.5834 24.9843 29.6436 26.3448 26.745 27.2471C26.7224 27.254 26.6983 27.2536 26.6759 27.246C26.6536 27.2384 26.6342 27.2239 26.6204 27.2047C25.9507 26.2672 25.3423 25.2788 24.8092 24.2409C24.7786 24.1797 24.8065 24.1061 24.8695 24.082C25.8359 23.7157 26.7547 23.2766 27.6386 22.7567C27.7082 22.7157 27.7127 22.6153 27.6483 22.5671C27.4608 22.427 27.2749 22.2797 27.0971 22.1325C27.0638 22.1053 27.0191 22.0999 26.9814 22.1182C21.2432 24.7844 14.9574 24.7844 9.15134 22.1182C9.11365 22.1012 9.06886 22.107 9.03648 22.1338C8.85909 22.2811 8.67283 22.427 8.48701 22.5671C8.42271 22.6153 8.42803 22.7157 8.4981 22.7567C9.38195 23.2668 10.3008 23.7157 11.2658 24.0838C11.3284 24.1079 11.3581 24.1797 11.327 24.2409C10.8055 25.2801 10.1971 26.2685 9.515 27.206C9.48528 27.2439 9.4365 27.2613 9.39038 27.2471C6.50556 26.3448 3.56574 24.9843 0.531471 22.7425C0.506193 22.7228 0.48801 22.6916 0.485349 22.659C-0.132859 16.001 1.12706 9.25945 5.72637 2.34794C5.73745 2.32964 5.75431 2.31536 5.77382 2.30688C8.03688 1.26183 10.4614 0.492995 12.9954 0.0539135C13.0415 0.046774 13.0877 0.0681926 13.1116 0.109245C13.4247 0.667021 13.7826 1.38231 14.0247 1.96686C16.6958 1.55634 19.4085 1.55634 22.1355 1.96686C22.3776 1.39481 22.7231 0.667021 23.0349 0.109245C23.046 0.0888793 23.0632 0.0725635 23.084 0.0626268C23.1049 0.0526901 23.1284 0.0496405 23.151 0.0539135C25.6864 0.494334 28.1109 1.26317 30.3722 2.30688C30.3921 2.31536 30.4086 2.32964 30.4183 2.34927ZM15.3826 15.0086C15.4106 13.0403 13.9844 11.4116 12.194 11.4116C10.4184 11.4116 9.00588 13.026 9.00588 15.0086C9.00588 16.9907 10.4463 18.6051 12.194 18.6051C13.9702 18.6051 15.3826 16.9907 15.3826 15.0086ZM27.1712 15.0086C27.1991 13.0403 25.7729 11.4116 23.983 11.4116C22.2069 11.4116 20.7944 13.026 20.7944 15.0086C20.7944 16.9907 22.2348 18.6051 23.983 18.6051C25.7729 18.6051 27.1712 16.9907 27.1712 15.0086Z" fill="white"/>
</svg>
