<svg width="38" height="38" viewBox="0 0 38 38" fill="none" xmlns="http://www.w3.org/2000/svg">
<path d="M12.8096 18.9999C12.8096 15.582 15.5813 12.8105 19.0012 12.8105C22.4212 12.8105 25.1944 15.582 25.1944 18.9999C25.1944 22.4178 22.4212 25.1893 19.0012 25.1893C15.5813 25.1893 12.8096 22.4178 12.8096 18.9999ZM9.46175 18.9999C9.46175 24.2654 13.7326 28.5337 19.0012 28.5337C24.2699 28.5337 28.5407 24.2654 28.5407 18.9999C28.5407 13.7344 24.2699 9.46612 19.0012 9.46612C13.7326 9.46612 9.46175 13.7344 9.46175 18.9999ZM26.689 9.0881C26.6889 9.52876 26.8194 9.95957 27.0643 10.3261C27.3091 10.6926 27.6571 10.9783 28.0644 11.1471C28.4717 11.3159 28.92 11.3602 29.3524 11.2744C29.7849 11.1886 30.1822 10.9765 30.4941 10.6651C30.806 10.3536 31.0185 9.95668 31.1047 9.52453C31.1909 9.09237 31.1469 8.64437 30.9784 8.23719C30.8098 7.83001 30.5242 7.48193 30.1577 7.23697C29.7912 6.99201 29.3602 6.86116 28.9193 6.86099H28.9184C28.3274 6.86126 27.7606 7.09596 27.3426 7.51354C26.9246 7.93112 26.6896 8.49743 26.689 9.0881ZM11.4958 34.1127C9.68453 34.0303 8.70006 33.7288 8.04582 33.474C7.17846 33.1366 6.55959 32.7346 5.90892 32.0853C5.25825 31.4359 4.85549 30.818 4.5193 29.9511C4.26426 29.2976 3.96256 28.3134 3.88022 26.5032C3.79016 24.5461 3.77217 23.9582 3.77217 19C3.77217 14.0418 3.79164 13.4556 3.88022 11.4969C3.96271 9.68669 4.26664 8.70444 4.5193 8.04896C4.85697 7.18212 5.25914 6.56362 5.90892 5.91334C6.5587 5.26306 7.17697 4.86054 8.04582 4.52455C8.69976 4.26967 9.68453 3.96815 11.4958 3.88586C13.4541 3.79585 14.0423 3.77788 19.0012 3.77788C23.9602 3.77788 24.549 3.79733 26.5089 3.88586C28.3202 3.9683 29.303 4.27205 29.9589 4.52455C30.8263 4.86054 31.4451 5.26395 32.0958 5.91334C32.7465 6.56273 33.1477 7.18212 33.4854 8.04896C33.7405 8.70251 34.0422 9.68669 34.1245 11.4969C34.2146 13.4556 34.2325 14.0418 34.2325 19C34.2325 23.9582 34.2146 24.5445 34.1245 26.5032C34.042 28.3134 33.7388 29.2973 33.4854 29.9511C33.1477 30.818 32.7456 31.4365 32.0958 32.0853C31.446 32.734 30.8263 33.1366 29.9589 33.474C29.305 33.7289 28.3202 34.0304 26.5089 34.1127C24.5507 34.2027 23.9624 34.2207 19.0012 34.2207C14.0401 34.2207 13.4535 34.2027 11.4958 34.1127ZM11.342 0.545637C9.36425 0.635648 8.01283 0.949054 6.83261 1.40802C5.61034 1.88199 4.57563 2.51787 3.54166 3.54958C2.50769 4.58129 1.87307 5.61702 1.39882 6.83856C0.939575 8.01881 0.625981 9.36868 0.535916 11.3452C0.444364 13.3249 0.423409 13.9578 0.423409 18.9999C0.423409 24.042 0.444364 24.6749 0.535916 26.6546C0.625981 28.6313 0.939575 29.981 1.39882 31.1612C1.87307 32.382 2.50784 33.4189 3.54166 34.4502C4.57548 35.4815 5.61034 36.1165 6.83261 36.5918C8.01505 37.0507 9.36425 37.3641 11.342 37.4541C13.3239 37.5442 13.9561 37.5666 19.0012 37.5666C24.0464 37.5666 24.6797 37.5456 26.6605 37.4541C28.6384 37.3641 29.9889 37.0507 31.1699 36.5918C32.3914 36.1165 33.4269 35.4819 34.4608 34.4502C35.4948 33.4185 36.1281 32.382 36.6037 31.1612C37.0629 29.981 37.378 28.6311 37.4666 26.6546C37.5566 24.6734 37.5776 24.042 37.5776 18.9999C37.5776 13.9578 37.5566 13.3249 37.4666 11.3452C37.3765 9.36853 37.0629 8.01806 36.6037 6.83856C36.1281 5.61776 35.4932 4.58293 34.4608 3.54958C33.4285 2.51623 32.3914 1.88199 31.1714 1.40802C29.9889 0.949054 28.6382 0.634163 26.662 0.545637C24.6812 0.455626 24.0479 0.433197 19.0027 0.433197C13.9576 0.433197 13.3239 0.45414 11.342 0.545637Z" fill="white"/>
</svg>
