<svg width="48" height="22" viewBox="0 0 48 22" fill="none" xmlns="http://www.w3.org/2000/svg">
<path d="M0.731548 13.003C0.633905 13.003 0.556038 13.0784 0.543678 13.1871L0.200073 15.7963L0.543678 18.3598C0.544914 18.4673 0.633905 18.5427 0.731548 18.5427C0.82672 18.5427 0.903351 18.4685 0.919419 18.3598L1.32606 15.7951L0.919419 13.1859C0.904587 13.0784 0.82672 13.003 0.731548 13.003V13.003ZM2.6634 11.5779C2.64733 11.4654 2.56699 11.3888 2.46811 11.3888C2.36923 11.3888 2.28642 11.4691 2.27283 11.5779C2.27283 11.578 1.81057 15.7963 1.81057 15.7963L2.27283 19.9208C2.28642 20.0321 2.368 20.1112 2.46811 20.1112C2.56699 20.1112 2.64733 20.0333 2.6634 19.9221L3.1887 15.7963L2.6634 11.5779ZM9.93843 7.687C9.74933 7.687 9.59236 7.84149 9.5837 8.03925L9.21538 15.8L9.5837 20.8157C9.59359 21.0122 9.74933 21.1667 9.93843 21.1667C10.1263 21.1667 10.2833 21.0122 10.2944 20.8157V20.8158L10.7097 15.8002L10.2944 8.03937C10.2833 7.84285 10.1275 7.68712 9.93843 7.68712V7.687ZM6.17237 10.384C6.02653 10.384 5.90787 10.5002 5.89675 10.6547L5.48269 15.7964L5.89675 20.7651C5.90787 20.9196 6.02653 21.0358 6.17237 21.0358C6.31575 21.0358 6.43564 20.9196 6.448 20.7651L6.91891 15.7964L6.448 10.6535C6.44676 10.499 6.31698 10.3828 6.17237 10.3828V10.384ZM13.7651 21.1631C13.9999 21.1631 14.1915 20.974 14.2001 20.7317L14.561 15.8014L14.2014 5.46975C14.1915 5.2275 14.0011 5.03839 13.7663 5.03839C13.529 5.03839 13.3374 5.22874 13.33 5.47099L13.0099 15.8014L13.33 20.7342C13.3374 20.9752 13.529 21.1643 13.7651 21.1643V21.1631ZM21.5988 21.1866C21.9226 21.1866 22.1883 20.9209 22.1945 20.5933V20.597V20.5933L22.4466 15.8039L22.1945 3.87162C22.1883 3.54532 21.9213 3.27834 21.5988 3.27834C21.2749 3.27834 21.008 3.54408 21.003 3.87285L20.7781 15.8014C20.7781 15.8088 21.003 20.5983 21.003 20.5983C21.008 20.9221 21.2762 21.1891 21.5988 21.1891V21.1866ZM17.6522 21.1705C17.934 21.1705 18.1602 20.9443 18.1676 20.6564V20.6601L18.4742 15.8039L18.1676 5.39683C18.1602 5.10884 17.9328 4.88389 17.6522 4.88389C17.3692 4.88389 17.1418 5.10884 17.1356 5.39683L16.8637 15.8039L17.1368 20.6588C17.143 20.9431 17.3692 21.1693 17.6535 21.1693L17.6522 21.1705ZM8.04984 21.1236C8.2167 21.1236 8.35266 20.9901 8.36502 20.8133L8.80874 15.7977L8.36502 11.0255C8.36378 10.8488 8.21794 10.7165 8.04984 10.7165C7.88051 10.7165 7.74455 10.85 7.73466 11.028L7.34409 15.7977L7.73466 20.8133C7.74579 20.9901 7.88051 21.1236 8.04984 21.1236V21.1236ZM4.31715 20.8492C4.43952 20.8492 4.5384 20.7528 4.55199 20.6193L5.05009 15.7964L4.55199 10.7919C4.53716 10.6584 4.43828 10.562 4.31592 10.562C4.19232 10.562 4.09344 10.6584 4.08108 10.7919L3.6423 15.7964L4.08108 20.618C4.08232 20.7515 4.19232 20.8492 4.31592 20.8492H4.31715ZM19.6212 5.22256C19.3159 5.22256 19.0712 5.46605 19.065 5.77628L18.8165 15.8026L19.065 20.6279C19.0712 20.9345 19.3159 21.1779 19.6212 21.1779C19.9265 21.1779 20.17 20.9357 20.1774 20.6242V20.6279L20.4567 15.8026L20.1774 5.77381C20.17 5.46357 19.9265 5.22132 19.6212 5.22132V5.22256ZM11.848 21.173C12.0594 21.173 12.2337 21.0012 12.2436 20.7812L12.6317 15.8002L12.2436 6.2645C12.2324 6.04449 12.0594 5.87269 11.848 5.87269C11.6354 5.87269 11.4612 6.04449 11.4525 6.2645L11.1089 15.8002L11.4525 20.7812C11.4612 20.9987 11.6354 21.1705 11.848 21.1705V21.173ZM16.1802 20.7008V20.6984L16.5139 15.7989L16.1802 5.11873C16.1728 4.853 15.9626 4.64535 15.7043 4.64535C15.4448 4.64535 15.2359 4.853 15.2285 5.11873L14.9331 15.7977L15.2297 20.6996C15.2371 20.9629 15.446 21.1693 15.7056 21.1693C15.9639 21.1693 16.1728 20.9616 16.1814 20.6971L16.1802 20.7008ZM41.3944 9.64245C40.6033 9.64245 39.8481 9.80313 39.1597 10.0911C38.6999 4.88389 34.3344 0.800186 29.0085 0.800186C27.7058 0.800186 26.4352 1.05727 25.3129 1.4911C24.8766 1.6592 24.7604 1.83347 24.7567 2.1709V20.5068C24.7617 20.8603 25.036 21.1545 25.3809 21.1903C25.3957 21.1904 41.2918 21.2002 41.3944 21.2002C44.5844 21.2002 47.1714 18.6133 47.1714 15.4232C47.1714 12.2319 44.5857 9.64492 41.3944 9.64492V9.64245ZM23.5751 2.15483C23.2278 2.15483 22.9435 2.43911 22.9386 2.79013L22.6778 15.8039L22.9386 20.5266C22.9435 20.8714 23.2278 21.1557 23.5751 21.1557C23.9212 21.1557 24.2055 20.8714 24.2116 20.5216V20.5278L24.4947 15.8039L24.2116 2.78889C24.2067 2.44034 23.9212 2.15483 23.5751 2.15483" fill="white"/>
</svg>
