<svg width="35" height="35" viewBox="0 0 35 35" fill="none" xmlns="http://www.w3.org/2000/svg">
<path fill-rule="evenodd" clip-rule="evenodd" d="M17.0103 0.000854492C7.65471 0.000854492 0.00012207 7.65544 0.00012207 17.0111C0.00012207 26.3667 7.65471 34.0213 17.0103 34.0213C26.3659 34.0213 34.0205 26.3667 34.0205 17.0111C34.0205 7.65544 26.451 0.000854492 17.0103 0.000854492ZM24.835 24.5806C24.4948 25.0909 23.8994 25.261 23.3891 24.9208C19.3917 22.4543 14.3737 21.944 8.42017 23.3048C7.82481 23.4749 7.31451 23.0497 7.1444 22.5394C6.9743 21.944 7.39956 21.4337 7.90986 21.2636C14.3737 19.8177 19.9871 20.4131 24.4098 23.1347C25.0051 23.3899 25.0902 24.0703 24.835 24.5806ZM26.8762 19.9028C26.451 20.4981 25.6855 20.7533 25.0902 20.328C20.4974 17.5214 13.5232 16.6709 8.16502 18.3719C7.48461 18.542 6.71915 18.2018 6.54905 17.5214C6.37895 16.841 6.71915 16.0755 7.39956 15.9054C13.6083 14.0343 21.2629 14.9698 26.536 18.2018C27.0463 18.4569 27.3015 19.3074 26.8762 19.9028ZM27.0463 15.1399C21.6031 11.908 12.5026 11.5678 7.31451 13.1838C6.464 13.4389 5.61349 12.9286 5.35833 12.1631C5.10318 11.3126 5.61349 10.4621 6.37895 10.207C12.4176 8.4209 22.3685 8.76111 28.6623 12.5034C29.4278 12.9286 29.6829 13.9492 29.2577 14.7147C28.8324 15.31 27.8118 15.5652 27.0463 15.1399Z" fill="white"/>
</svg>
