<svg width="32" height="32" viewBox="0 0 32 32" fill="none" xmlns="http://www.w3.org/2000/svg">
<g clip-path="url(#clip0_33_112)">
<path d="M31.9387 6.09199C30.7587 6.61066 29.4987 6.96399 28.172 7.12533C29.524 6.31066 30.564 5.02666 31.056 3.49466C29.788 4.23466 28.3827 4.77333 26.8867 5.07333C25.692 3.79466 23.9893 2.99466 22.0987 2.99466C18.476 2.99466 15.5387 5.93199 15.5387 9.55066C15.5387 10.0707 15.5987 10.5707 15.708 11.0493C10.2547 10.792 5.42133 8.17333 2.18667 4.21466C1.61733 5.17733 1.29867 6.29599 1.29867 7.51466C1.29867 9.79466 2.45867 11.7987 4.216 12.976C3.14 12.9413 2.128 12.6453 1.24533 12.1547V12.236C1.24533 15.416 3.50267 18.068 6.50667 18.672C5.956 18.82 5.37467 18.9 4.77867 18.9C4.36 18.9 3.95867 18.86 3.55733 18.7853C4.39867 21.3893 6.81733 23.288 9.696 23.3413C7.456 25.1 4.61733 26.148 1.56 26.148C1.04 26.148 0.521333 26.1173 0 26.0587C2.91867 27.9173 6.35733 29.004 10.076 29.004C22.148 29.004 28.7413 19.0093 28.7413 10.356C28.7413 10.0773 28.7413 9.79599 28.7213 9.51599C30.0027 8.59733 31.1213 7.43599 32.0013 6.11866L31.9387 6.09199Z" fill="white"/>
</g>
<defs>
<clipPath id="clip0_33_112">
<rect width="32" height="32" fill="white"/>
</clipPath>
</defs>
</svg>
