<svg width="39" height="26" viewBox="0 0 39 26" fill="none" xmlns="http://www.w3.org/2000/svg">
<path fill-rule="evenodd" clip-rule="evenodd" d="M4.99221 0.956256C1.70931 1.57327 0.807591 4.2632 0.855127 13.2972C0.904125 22.4035 1.55646 24.4621 4.66604 25.3139C5.76009 25.6138 12.9819 25.8593 20.7141 25.8593C38.4574 25.8593 37.9324 26.1742 38.3434 15.2957C38.7024 5.80287 37.7905 2.28834 34.6926 1.23112C32.5001 0.483119 8.68465 0.262656 4.99221 0.956256ZM25.886 12.993C26.0052 13.0846 24.5243 14.0566 22.5951 15.1539C20.6666 16.2512 18.3483 17.6155 17.4429 18.186L15.7975 19.2239V13.3537V7.48354L20.7339 10.1556C23.4485 11.6251 25.7676 12.9021 25.886 12.993Z" fill="white"/>
</svg>
